<svg xmlns="http://www.w3.org/2000/svg"  viewBox="0 0 32 32" width="32px" height="32px" fill-rule="evenodd" clip-rule="evenodd" baseProfile="basic"><path fill="#fcc201" fill-rule="evenodd" d="M3.003,29V13l13-3l13,3	v16H3.003z" clip-rule="evenodd"/><path fill="#064678" fill-rule="evenodd" d="M11.003,8V3h10v5h-2V5	h-6v3H11.003z" clip-rule="evenodd"/><path fill="#706d67" fill-rule="evenodd" d="M3.003,13V9h2V7h22v2h2	v4H3.003z" clip-rule="evenodd"/><path fill="#b6b5b5" fill-rule="evenodd" d="M7.003,13v-2h4v2l-1,1	l1,1v2h-4v-2l1-1L7.003,13z" clip-rule="evenodd"/><path fill="#e6e5e5" fill-rule="evenodd" d="M7.001,13v2h4.001v-2	H7.001z" clip-rule="evenodd"/><path fill="#b6b5b5" fill-rule="evenodd" d="M21.003,13v-2h4v2l-1,1	l1,1v2h-4v-2l1-1L21.003,13z" clip-rule="evenodd"/><path fill="#e6e5e5" fill-rule="evenodd" d="M21.001,13v2h4.001v-2	H21.001z" clip-rule="evenodd"/></svg>